<?xml version="1.0" encoding="UTF-8" standalone="no"?>
<!DOCTYPE svg PUBLIC "-//W3C//DTD SVG 1.1//EN" "http://www.w3.org/Graphics/SVG/1.1/DTD/svg11.dtd">
<svg width="100%" height="100%" viewBox="0 0 1025 1024" version="1.1" xmlns="http://www.w3.org/2000/svg" xmlns:xlink="http://www.w3.org/1999/xlink" xml:space="preserve" xmlns:serif="http://www.serif.com/" style="fill-rule:evenodd;clip-rule:evenodd;stroke-linejoin:round;stroke-miterlimit:2;">
    <g transform="matrix(1,0,0,1,-1220,0)">
        <g transform="matrix(1,0,0,1,1220.99,0)">
            <rect id="Icon" x="0" y="0" width="1024" height="1024" style="fill:none;"/>
            <g id="Icon1" serif:id="Icon">
                <path d="M1024,40.96C1024,18.354 1005.65,0 983.04,0L40.96,0C18.354,0 0,18.354 0,40.96L0,983.04C0,1005.65 18.354,1024 40.96,1024L983.04,1024C1005.65,1024 1024,1005.65 1024,983.04L1024,40.96Z"/>
                <g transform="matrix(72.0222,0,0,72.0222,-21645.1,-19569)">
                    <path d="M306.163,283.185C305.823,283.185 305.473,283.152 305.113,283.086C304.753,283.02 304.419,282.94 304.111,282.846C303.833,282.761 303.606,282.679 303.433,282.599C303.4,282.583 303.381,282.549 303.385,282.514C303.412,282.276 303.51,281.38 303.546,281.058C303.549,281.031 303.565,281.007 303.588,280.994C303.612,280.981 303.64,280.98 303.664,280.992C303.912,281.108 304.169,281.218 304.435,281.319C304.739,281.435 305.051,281.529 305.371,281.601C305.691,281.673 306.015,281.709 306.343,281.709C306.751,281.709 307.079,281.629 307.327,281.469C307.575,281.309 307.699,281.065 307.699,280.737C307.699,280.485 307.629,280.282 307.489,280.128C307.349,279.974 307.135,279.836 306.847,279.714C306.559,279.592 306.191,279.453 305.743,279.297C305.295,279.141 304.893,278.964 304.537,278.766C304.181,278.568 303.899,278.317 303.691,278.013C303.483,277.709 303.379,277.321 303.379,276.849C303.379,276.385 303.493,275.972 303.721,275.61C303.949,275.248 304.29,274.964 304.744,274.758C305.198,274.552 305.763,274.449 306.439,274.449C306.951,274.449 307.439,274.506 307.903,274.62C308.34,274.727 308.716,274.843 309.032,274.966C309.067,274.98 309.088,275.015 309.085,275.052C309.061,275.289 308.977,276.137 308.946,276.446C308.944,276.473 308.928,276.497 308.905,276.51C308.882,276.524 308.854,276.525 308.83,276.515C308.397,276.325 307.989,276.18 307.606,276.078C307.192,275.968 306.771,275.913 306.343,275.913C305.895,275.913 305.549,275.987 305.305,276.135C305.061,276.283 304.939,276.505 304.939,276.801C304.939,277.037 305.007,277.227 305.143,277.371C305.279,277.515 305.473,277.638 305.725,277.74C305.977,277.842 306.279,277.949 306.631,278.061C307.239,278.253 307.75,278.464 308.164,278.694C308.578,278.924 308.89,279.202 309.1,279.528C309.31,279.854 309.415,280.257 309.415,280.737C309.415,280.977 309.377,281.238 309.301,281.52C309.225,281.802 309.075,282.069 308.851,282.321C308.627,282.573 308.3,282.78 307.87,282.942C307.44,283.104 306.871,283.185 306.163,283.185Z" style="fill:white;fill-rule:nonzero;"/>
                    <g transform="matrix(0.0138846,0,0,0.0138846,300.657,271.708)">
                        <path d="M704.919,366.621C704.919,353.248 715.776,342.391 729.149,342.391C742.522,342.391 753.379,353.248 753.379,366.621L753.379,463.54C753.379,476.913 742.522,487.77 729.149,487.77C715.776,487.77 704.919,476.913 704.919,463.54L704.919,366.621ZM704.919,560.46C704.919,547.087 715.776,536.23 729.149,536.23C742.522,536.23 753.379,547.087 753.379,560.46L753.379,657.379C753.379,670.752 742.522,681.609 729.149,681.609C715.776,681.609 704.919,670.752 704.919,657.379L704.919,560.46ZM786.068,197.407C799.441,197.407 810.298,208.264 810.298,221.637C810.298,235.01 799.441,245.867 786.068,245.867L753.379,245.867L753.379,270.097C753.379,283.47 742.522,294.327 729.149,294.327C715.776,294.327 704.919,283.47 704.919,270.097L704.919,245.867L672.23,245.867C658.857,245.867 648,235.01 648,221.637C648,208.264 658.857,197.407 672.23,197.407L786.068,197.407ZM786.068,826.593L672.23,826.593C658.857,826.593 648,815.736 648,802.363C648,788.99 658.857,778.133 672.23,778.133L704.919,778.133L704.919,753.903C704.919,740.53 715.776,729.673 729.149,729.673C742.522,729.673 753.379,740.53 753.379,753.903L753.379,778.133L786.068,778.133C799.441,778.133 810.298,788.99 810.298,802.363C810.298,815.736 799.441,826.593 786.068,826.593Z" style="fill:rgb(255,102,0);"/>
                    </g>
                </g>
            </g>
        </g>
    </g>
</svg>
